<?xml version="1.0" encoding="UTF-8" standalone="no"?>
<svg
   xmlns:dc="http://purl.org/dc/elements/1.1/"
   xmlns:cc="http://creativecommons.org/ns#"
   xmlns:rdf="http://www.w3.org/1999/02/22-rdf-syntax-ns#"
   xmlns:svg="http://www.w3.org/2000/svg"
   xmlns="http://www.w3.org/2000/svg"
   xmlns:sodipodi="http://sodipodi.sourceforge.net/DTD/sodipodi-0.dtd"
   xmlns:inkscape="http://www.inkscape.org/namespaces/inkscape"
   inkscape:export-ydpi="96"
   inkscape:export-xdpi="96"
   inkscape:export-filename="C:\Users\wyndf\Documents\vrc-workspace\Images\Icons\EyeEffectHart.png"
   width="256"
   height="256"
   viewBox="0 0 67.733332 67.733335"
   version="1.1"
   id="svg8"
   inkscape:version="1.0 (4035a4fb49, 2020-05-01)"
   sodipodi:docname="EyeEffectHart.svg">
  <defs
     id="defs2" />
  <sodipodi:namedview
     id="base"
     pagecolor="#808080"
     bordercolor="#666666"
     borderopacity="1.0"
     inkscape:pageopacity="0"
     inkscape:pageshadow="2"
     inkscape:zoom="1.4142136"
     inkscape:cx="55.371285"
     inkscape:cy="106.94626"
     inkscape:document-units="mm"
     inkscape:current-layer="layer1"
     inkscape:document-rotation="0"
     showgrid="false"
     units="px"
     inkscape:pagecheckerboard="false"
     inkscape:window-width="1440"
     inkscape:window-height="837"
     inkscape:window-x="-8"
     inkscape:window-y="-8"
     inkscape:window-maximized="1" />
  <metadata
     id="metadata5">
    <rdf:RDF>
      <cc:Work
         rdf:about="">
        <dc:format>image/svg+xml</dc:format>
        <dc:type
           rdf:resource="http://purl.org/dc/dcmitype/StillImage" />
        <dc:title></dc:title>
      </cc:Work>
    </rdf:RDF>
  </metadata>
  <g
     inkscape:label="レイヤー 1"
     inkscape:groupmode="layer"
     id="layer1">
    <ellipse
       style="fill:#ffffff;fill-opacity:1;fill-rule:evenodd;stroke:none;stroke-width:0;stroke-miterlimit:4;stroke-dasharray:none;stroke-opacity:1"
       id="path10"
       cx="21.166666"
       cy="33.866669"
       rx="12.7"
       ry="16.933334" />
    <ellipse
       ry="16.933336"
       rx="12.7"
       cy="33.866665"
       cx="46.566666"
       id="path10-1"
       style="fill:#ffffff;fill-opacity:1;fill-rule:evenodd;stroke:none;stroke-width:0;stroke-miterlimit:4;stroke-dasharray:none;stroke-opacity:1" />
    <g
       transform="matrix(3.226901,0,0,3.3635143,37.455295,-46.433322)"
       style="font-style:normal;font-weight:normal;font-size:10.5833px;line-height:1.25;font-family:sans-serif;fill:#000000;fill-opacity:1;stroke:none;stroke-width:0.0803105"
       id="text836"
       aria-label="♥">
      <path
         id="path838"
         style="stroke-width:0.0803105"
         d="m -2.5879717,22.836866 q 0,1.446935 -1.6949815,3.389963 l -0.7441383,0.950843 -0.8268203,-0.950843 q -1.6536406,-1.943028 -1.6536406,-3.389963 0,-0.578774 0.3720692,-1.033526 0.3307281,-0.289387 0.9095023,-0.289387 0.4960922,0 0.8268203,0.289387 0.165364,0.248047 0.3720691,0.578775 0.082682,-0.330728 0.2893871,-0.578775 0.3720691,-0.289387 0.8681613,-0.289387 0.5374332,0 0.8681613,0.289387 0.4134101,0.454752 0.4134101,1.033526 z" />
    </g>
    <g
       aria-label="♥"
       id="text836-3"
       style="font-style:normal;font-weight:normal;font-size:10.5833px;line-height:1.25;font-family:sans-serif;fill:#000000;fill-opacity:1;stroke:none;stroke-width:0.0803105"
       transform="matrix(3.2269009,0,0,3.3635143,62.855294,-46.433322)">
      <path
         d="m -2.5879717,22.836866 q 0,1.446935 -1.6949815,3.389963 l -0.7441383,0.950843 -0.8268203,-0.950843 q -1.6536406,-1.943028 -1.6536406,-3.389963 0,-0.578774 0.3720692,-1.033526 0.3307281,-0.289387 0.9095023,-0.289387 0.4960922,0 0.8268203,0.289387 0.165364,0.248047 0.3720691,0.578775 0.082682,-0.330728 0.2893871,-0.578775 0.3720691,-0.289387 0.8681613,-0.289387 0.5374332,0 0.8681613,0.289387 0.4134101,0.454752 0.4134101,1.033526 z"
         style="stroke-width:0.0803105"
         id="path838-8" />
    </g>
  </g>
</svg>
